<svg xmlns="http://www.w3.org/2000/svg" xmlns:xlink="http://www.w3.org/1999/xlink" width="368" zoomAndPan="magnify" viewBox="0 0 276 130.499996" height="174" preserveAspectRatio="xMidYMid meet" version="1.0"><defs><g/><clipPath id="d00ed991ab"><path d="M 0.597656 3.136719 L 67 3.136719 L 67 58.425781 L 0.597656 58.425781 Z M 0.597656 3.136719 " clip-rule="nonzero"/></clipPath></defs><g clip-path="url(#d00ed991ab)"><path fill="#1d683e" d="M 1.164062 11.070312 C 10.96875 6.347656 19.539062 4.441406 24.898438 3.957031 C 31.808594 3.332031 39.292969 3.132812 47.476562 7.066406 C 55.054688 10.707031 58.949219 16.25 59.753906 17.4375 C 61.34375 19.773438 63.984375 23.769531 64.320312 29.570312 C 64.433594 31.5625 64.375 35.414062 62.433594 39.644531 C 62.324219 39.878906 62.207031 40.09375 62.09375 40.320312 C 59.351562 36.878906 56.03125 33.324219 52.011719 29.90625 C 41.648438 21.089844 30.921875 16.796875 23.316406 14.648438 C 22.828125 14.511719 22.582031 15.21875 23.050781 15.414062 C 28.390625 17.664062 34.527344 20.878906 40.777344 25.519531 C 55.128906 36.171875 62.894531 48.980469 66.789062 56.875 C 67.058594 57.417969 66.660156 58.046875 66.058594 58.046875 L 63.246094 58.046875 C 62.632812 58.046875 62.074219 57.699219 61.796875 57.152344 C 60.355469 54.34375 58.496094 51.070312 56.105469 47.570312 C 55.535156 48.015625 55.03125 48.371094 54.652344 48.632812 C 50.324219 51.625 46.136719 52.398438 44.382812 52.636719 C 42.5 52.894531 38.585938 53.382812 33.964844 51.71875 C 31.269531 50.746094 28.386719 49.035156 25.066406 45.425781 C 16.261719 35.859375 18.5625 28.386719 11.15625 19.945312 C 9.339844 17.875 6.269531 14.988281 1.175781 12.53125 C 0.566406 12.238281 0.554688 11.363281 1.164062 11.070312 " fill-opacity="1" fill-rule="nonzero"/></g><g fill="#1d683e" fill-opacity="1"><g transform="translate(44.873902, 84.606065)"><g><path d="M 39.765625 0 L 29.90625 0 L 13.421875 -24.953125 L 13.421875 0 L 3.578125 0 L 3.578125 -40.453125 L 13.421875 -40.453125 L 29.90625 -15.390625 L 29.90625 -40.453125 L 39.765625 -40.453125 Z M 39.765625 0 "/></g></g></g><g fill="#1d683e" fill-opacity="1"><g transform="translate(84.855497, 84.606065)"><g><path d="M 1.609375 -16.140625 C 1.609375 -19.441406 2.234375 -22.335938 3.484375 -24.828125 C 4.734375 -27.328125 6.429688 -29.25 8.578125 -30.59375 C 10.734375 -31.9375 13.140625 -32.609375 15.796875 -32.609375 C 18.054688 -32.609375 20.039062 -32.144531 21.75 -31.21875 C 23.457031 -30.300781 24.773438 -29.097656 25.703125 -27.609375 L 25.703125 -32.15625 L 35.546875 -32.15625 L 35.546875 0 L 25.703125 0 L 25.703125 -4.546875 C 24.742188 -3.054688 23.40625 -1.847656 21.6875 -0.921875 C 19.976562 0.00390625 17.992188 0.46875 15.734375 0.46875 C 13.117188 0.46875 10.734375 -0.210938 8.578125 -1.578125 C 6.429688 -2.941406 4.734375 -4.878906 3.484375 -7.390625 C 2.234375 -9.910156 1.609375 -12.828125 1.609375 -16.140625 Z M 25.703125 -16.078125 C 25.703125 -18.535156 25.019531 -20.472656 23.65625 -21.890625 C 22.289062 -23.316406 20.628906 -24.03125 18.671875 -24.03125 C 16.710938 -24.03125 15.050781 -23.328125 13.6875 -21.921875 C 12.320312 -20.523438 11.640625 -18.597656 11.640625 -16.140625 C 11.640625 -13.679688 12.320312 -11.726562 13.6875 -10.28125 C 15.050781 -8.84375 16.710938 -8.125 18.671875 -8.125 C 20.628906 -8.125 22.289062 -8.832031 23.65625 -10.25 C 25.019531 -11.675781 25.703125 -13.617188 25.703125 -16.078125 Z M 25.703125 -16.078125 "/></g></g></g><g fill="#1d683e" fill-opacity="1"><g transform="translate(120.63147, 84.606065)"><g><path d="M 21.5 -8.359375 L 21.5 0 L 16.484375 0 C 12.910156 0 10.125 -0.875 8.125 -2.625 C 6.125 -4.375 5.125 -7.222656 5.125 -11.171875 L 5.125 -23.96875 L 1.203125 -23.96875 L 1.203125 -32.15625 L 5.125 -32.15625 L 5.125 -39.984375 L 14.984375 -39.984375 L 14.984375 -32.15625 L 21.4375 -32.15625 L 21.4375 -23.96875 L 14.984375 -23.96875 L 14.984375 -11.0625 C 14.984375 -10.101562 15.210938 -9.410156 15.671875 -8.984375 C 16.128906 -8.566406 16.898438 -8.359375 17.984375 -8.359375 Z M 21.5 -8.359375 "/></g></g></g><g fill="#1d683e" fill-opacity="1"><g transform="translate(140.679572, 84.606065)"><g><path d="M 35.328125 -32.15625 L 35.328125 0 L 25.46875 0 L 25.46875 -4.375 C 24.46875 -2.957031 23.113281 -1.816406 21.40625 -0.953125 C 19.695312 -0.0859375 17.804688 0.34375 15.734375 0.34375 C 13.273438 0.34375 11.101562 -0.203125 9.21875 -1.296875 C 7.332031 -2.390625 5.867188 -3.972656 4.828125 -6.046875 C 3.796875 -8.117188 3.28125 -10.5625 3.28125 -13.375 L 3.28125 -32.15625 L 13.078125 -32.15625 L 13.078125 -14.6875 C 13.078125 -12.539062 13.632812 -10.867188 14.75 -9.671875 C 15.863281 -8.484375 17.363281 -7.890625 19.25 -7.890625 C 21.164062 -7.890625 22.679688 -8.484375 23.796875 -9.671875 C 24.910156 -10.867188 25.46875 -12.539062 25.46875 -14.6875 L 25.46875 -32.15625 Z M 35.328125 -32.15625 "/></g></g></g><g fill="#1d683e" fill-opacity="1"><g transform="translate(176.16749, 84.606065)"><g><path d="M 13.421875 -26.796875 C 14.578125 -28.566406 16.019531 -29.957031 17.75 -30.96875 C 19.476562 -31.988281 21.398438 -32.5 23.515625 -32.5 L 23.515625 -22.078125 L 20.796875 -22.078125 C 18.335938 -22.078125 16.492188 -21.546875 15.265625 -20.484375 C 14.035156 -19.429688 13.421875 -17.578125 13.421875 -14.921875 L 13.421875 0 L 3.578125 0 L 3.578125 -32.15625 L 13.421875 -32.15625 Z M 13.421875 -26.796875 "/></g></g></g><g fill="#1d683e" fill-opacity="1"><g transform="translate(197.483033, 84.606065)"><g><path d="M 33.890625 -16.59375 C 33.890625 -15.675781 33.828125 -14.71875 33.703125 -13.71875 L 11.40625 -13.71875 C 11.5625 -11.71875 12.207031 -10.1875 13.34375 -9.125 C 14.476562 -8.070312 15.867188 -7.546875 17.515625 -7.546875 C 19.972656 -7.546875 21.679688 -8.582031 22.640625 -10.65625 L 33.140625 -10.65625 C 32.597656 -8.539062 31.625 -6.640625 30.21875 -4.953125 C 28.820312 -3.265625 27.066406 -1.9375 24.953125 -0.96875 C 22.835938 -0.0078125 20.472656 0.46875 17.859375 0.46875 C 14.710938 0.46875 11.910156 -0.203125 9.453125 -1.546875 C 6.992188 -2.898438 5.070312 -4.820312 3.6875 -7.3125 C 2.300781 -9.8125 1.609375 -12.734375 1.609375 -16.078125 C 1.609375 -19.421875 2.289062 -22.335938 3.65625 -24.828125 C 5.019531 -27.328125 6.929688 -29.25 9.390625 -30.59375 C 11.847656 -31.9375 14.671875 -32.609375 17.859375 -32.609375 C 20.972656 -32.609375 23.738281 -31.957031 26.15625 -30.65625 C 28.582031 -29.351562 30.476562 -27.488281 31.84375 -25.0625 C 33.207031 -22.644531 33.890625 -19.820312 33.890625 -16.59375 Z M 23.796875 -19.1875 C 23.796875 -20.875 23.21875 -22.21875 22.0625 -23.21875 C 20.914062 -24.21875 19.476562 -24.71875 17.75 -24.71875 C 16.09375 -24.71875 14.695312 -24.238281 13.5625 -23.28125 C 12.4375 -22.320312 11.738281 -20.957031 11.46875 -19.1875 Z M 23.796875 -19.1875 "/></g></g></g><g fill="#189d1f" fill-opacity="0.4"><g transform="translate(72.275687, 104.122622)"><g><path d="M 7.90625 -9.78125 L 7.90625 -7.875 L 5.3125 -7.875 L 5.3125 0 L 2.921875 0 L 2.921875 -7.875 L 0.328125 -7.875 L 0.328125 -9.78125 Z M 7.90625 -9.78125 "/></g></g></g><g fill="#189d1f" fill-opacity="0.4"><g transform="translate(84.920633, 104.122622)"><g><path d="M 9.34375 -9.78125 L 9.34375 0 L 6.953125 0 L 6.953125 -4.03125 L 3.25 -4.03125 L 3.25 0 L 0.859375 0 L 0.859375 -9.78125 L 3.25 -9.78125 L 3.25 -5.953125 L 6.953125 -5.953125 L 6.953125 -9.78125 Z M 9.34375 -9.78125 "/></g></g></g><g fill="#189d1f" fill-opacity="0.4"><g transform="translate(99.51701, 104.122622)"><g><path d="M 3.25 -9.78125 L 3.25 0 L 0.859375 0 L 0.859375 -9.78125 Z M 3.25 -9.78125 "/></g></g></g><g fill="#189d1f" fill-opacity="0.4"><g transform="translate(108.036078, 104.122622)"><g><path d="M 9.609375 0 L 7.234375 0 L 3.25 -6.03125 L 3.25 0 L 0.859375 0 L 0.859375 -9.78125 L 3.25 -9.78125 L 7.234375 -3.71875 L 7.234375 -9.78125 L 9.609375 -9.78125 Z M 9.609375 0 "/></g></g></g><g fill="#189d1f" fill-opacity="0.4"><g transform="translate(122.925172, 104.122622)"><g><path d="M 6.53125 0 L 3.25 -4.328125 L 3.25 0 L 0.859375 0 L 0.859375 -9.78125 L 3.25 -9.78125 L 3.25 -5.484375 L 6.515625 -9.78125 L 9.3125 -9.78125 L 5.515625 -4.984375 L 9.453125 0 Z M 6.53125 0 "/></g></g></g><g fill="#189d1f" fill-opacity="0.4"><g transform="translate(137.047625, 104.122622)"><g/></g></g><g fill="#189d1f" fill-opacity="0.4"><g transform="translate(144.409771, 104.122622)"><g><path d="M 7.359375 -6.6875 C 7.179688 -7.007812 6.925781 -7.253906 6.59375 -7.421875 C 6.269531 -7.597656 5.882812 -7.6875 5.4375 -7.6875 C 4.664062 -7.6875 4.046875 -7.429688 3.578125 -6.921875 C 3.117188 -6.421875 2.890625 -5.75 2.890625 -4.90625 C 2.890625 -4 3.128906 -3.289062 3.609375 -2.78125 C 4.097656 -2.28125 4.769531 -2.03125 5.625 -2.03125 C 6.21875 -2.03125 6.710938 -2.175781 7.109375 -2.46875 C 7.515625 -2.769531 7.8125 -3.203125 8 -3.765625 L 4.96875 -3.765625 L 4.96875 -5.515625 L 10.15625 -5.515625 L 10.15625 -3.296875 C 9.976562 -2.703125 9.675781 -2.148438 9.25 -1.640625 C 8.832031 -1.128906 8.296875 -0.71875 7.640625 -0.40625 C 6.992188 -0.09375 6.265625 0.0625 5.453125 0.0625 C 4.484375 0.0625 3.617188 -0.144531 2.859375 -0.5625 C 2.109375 -0.988281 1.519531 -1.578125 1.09375 -2.328125 C 0.664062 -3.078125 0.453125 -3.9375 0.453125 -4.90625 C 0.453125 -5.875 0.664062 -6.734375 1.09375 -7.484375 C 1.519531 -8.242188 2.109375 -8.832031 2.859375 -9.25 C 3.609375 -9.675781 4.46875 -9.890625 5.4375 -9.890625 C 6.601562 -9.890625 7.585938 -9.601562 8.390625 -9.03125 C 9.203125 -8.46875 9.738281 -7.6875 10 -6.6875 Z M 7.359375 -6.6875 "/></g></g></g><g fill="#189d1f" fill-opacity="0.4"><g transform="translate(159.438249, 104.122622)"><g><path d="M 5.859375 0 L 3.8125 -3.6875 L 3.25 -3.6875 L 3.25 0 L 0.859375 0 L 0.859375 -9.78125 L 4.859375 -9.78125 C 5.628906 -9.78125 6.285156 -9.644531 6.828125 -9.375 C 7.378906 -9.101562 7.785156 -8.734375 8.046875 -8.265625 C 8.316406 -7.796875 8.453125 -7.273438 8.453125 -6.703125 C 8.453125 -6.054688 8.269531 -5.472656 7.90625 -4.953125 C 7.539062 -4.441406 7 -4.082031 6.28125 -3.875 L 8.546875 0 Z M 3.25 -5.375 L 4.71875 -5.375 C 5.15625 -5.375 5.484375 -5.476562 5.703125 -5.6875 C 5.921875 -5.90625 6.03125 -6.210938 6.03125 -6.609375 C 6.03125 -6.972656 5.921875 -7.265625 5.703125 -7.484375 C 5.484375 -7.703125 5.15625 -7.8125 4.71875 -7.8125 L 3.25 -7.8125 Z M 3.25 -5.375 "/></g></g></g><g fill="#189d1f" fill-opacity="0.4"><g transform="translate(172.933463, 104.122622)"><g><path d="M 3.25 -7.875 L 3.25 -5.890625 L 6.4375 -5.890625 L 6.4375 -4.0625 L 3.25 -4.0625 L 3.25 -1.90625 L 6.859375 -1.90625 L 6.859375 0 L 0.859375 0 L 0.859375 -9.78125 L 6.859375 -9.78125 L 6.859375 -7.875 Z M 3.25 -7.875 "/></g></g></g><g fill="#189d1f" fill-opacity="0.4"><g transform="translate(184.88147, 104.122622)"><g><path d="M 3.25 -7.875 L 3.25 -5.890625 L 6.4375 -5.890625 L 6.4375 -4.0625 L 3.25 -4.0625 L 3.25 -1.90625 L 6.859375 -1.90625 L 6.859375 0 L 0.859375 0 L 0.859375 -9.78125 L 6.859375 -9.78125 L 6.859375 -7.875 Z M 3.25 -7.875 "/></g></g></g><g fill="#189d1f" fill-opacity="0.4"><g transform="translate(196.829477, 104.122622)"><g><path d="M 9.609375 0 L 7.234375 0 L 3.25 -6.03125 L 3.25 0 L 0.859375 0 L 0.859375 -9.78125 L 3.25 -9.78125 L 7.234375 -3.71875 L 7.234375 -9.78125 L 9.609375 -9.78125 Z M 9.609375 0 "/></g></g></g><g fill="#1d683e" fill-opacity="1"><g transform="translate(71.659326, 103.506264)"><g><path d="M 7.90625 -9.78125 L 7.90625 -7.875 L 5.3125 -7.875 L 5.3125 0 L 2.921875 0 L 2.921875 -7.875 L 0.328125 -7.875 L 0.328125 -9.78125 Z M 7.90625 -9.78125 "/></g></g></g><g fill="#1d683e" fill-opacity="1"><g transform="translate(84.304272, 103.506264)"><g><path d="M 9.34375 -9.78125 L 9.34375 0 L 6.953125 0 L 6.953125 -4.03125 L 3.25 -4.03125 L 3.25 0 L 0.859375 0 L 0.859375 -9.78125 L 3.25 -9.78125 L 3.25 -5.953125 L 6.953125 -5.953125 L 6.953125 -9.78125 Z M 9.34375 -9.78125 "/></g></g></g><g fill="#1d683e" fill-opacity="1"><g transform="translate(98.900649, 103.506264)"><g><path d="M 3.25 -9.78125 L 3.25 0 L 0.859375 0 L 0.859375 -9.78125 Z M 3.25 -9.78125 "/></g></g></g><g fill="#1d683e" fill-opacity="1"><g transform="translate(107.419717, 103.506264)"><g><path d="M 9.609375 0 L 7.234375 0 L 3.25 -6.03125 L 3.25 0 L 0.859375 0 L 0.859375 -9.78125 L 3.25 -9.78125 L 7.234375 -3.71875 L 7.234375 -9.78125 L 9.609375 -9.78125 Z M 9.609375 0 "/></g></g></g><g fill="#1d683e" fill-opacity="1"><g transform="translate(122.308811, 103.506264)"><g><path d="M 6.53125 0 L 3.25 -4.328125 L 3.25 0 L 0.859375 0 L 0.859375 -9.78125 L 3.25 -9.78125 L 3.25 -5.484375 L 6.515625 -9.78125 L 9.3125 -9.78125 L 5.515625 -4.984375 L 9.453125 0 Z M 6.53125 0 "/></g></g></g><g fill="#1d683e" fill-opacity="1"><g transform="translate(136.431264, 103.506264)"><g/></g></g><g fill="#1d683e" fill-opacity="1"><g transform="translate(143.79341, 103.506264)"><g><path d="M 7.359375 -6.6875 C 7.179688 -7.007812 6.925781 -7.253906 6.59375 -7.421875 C 6.269531 -7.597656 5.882812 -7.6875 5.4375 -7.6875 C 4.664062 -7.6875 4.046875 -7.429688 3.578125 -6.921875 C 3.117188 -6.421875 2.890625 -5.75 2.890625 -4.90625 C 2.890625 -4 3.128906 -3.289062 3.609375 -2.78125 C 4.097656 -2.28125 4.769531 -2.03125 5.625 -2.03125 C 6.21875 -2.03125 6.710938 -2.175781 7.109375 -2.46875 C 7.515625 -2.769531 7.8125 -3.203125 8 -3.765625 L 4.96875 -3.765625 L 4.96875 -5.515625 L 10.15625 -5.515625 L 10.15625 -3.296875 C 9.976562 -2.703125 9.675781 -2.148438 9.25 -1.640625 C 8.832031 -1.128906 8.296875 -0.71875 7.640625 -0.40625 C 6.992188 -0.09375 6.265625 0.0625 5.453125 0.0625 C 4.484375 0.0625 3.617188 -0.144531 2.859375 -0.5625 C 2.109375 -0.988281 1.519531 -1.578125 1.09375 -2.328125 C 0.664062 -3.078125 0.453125 -3.9375 0.453125 -4.90625 C 0.453125 -5.875 0.664062 -6.734375 1.09375 -7.484375 C 1.519531 -8.242188 2.109375 -8.832031 2.859375 -9.25 C 3.609375 -9.675781 4.46875 -9.890625 5.4375 -9.890625 C 6.601562 -9.890625 7.585938 -9.601562 8.390625 -9.03125 C 9.203125 -8.46875 9.738281 -7.6875 10 -6.6875 Z M 7.359375 -6.6875 "/></g></g></g><g fill="#1d683e" fill-opacity="1"><g transform="translate(158.821888, 103.506264)"><g><path d="M 5.859375 0 L 3.8125 -3.6875 L 3.25 -3.6875 L 3.25 0 L 0.859375 0 L 0.859375 -9.78125 L 4.859375 -9.78125 C 5.628906 -9.78125 6.285156 -9.644531 6.828125 -9.375 C 7.378906 -9.101562 7.785156 -8.734375 8.046875 -8.265625 C 8.316406 -7.796875 8.453125 -7.273438 8.453125 -6.703125 C 8.453125 -6.054688 8.269531 -5.472656 7.90625 -4.953125 C 7.539062 -4.441406 7 -4.082031 6.28125 -3.875 L 8.546875 0 Z M 3.25 -5.375 L 4.71875 -5.375 C 5.15625 -5.375 5.484375 -5.476562 5.703125 -5.6875 C 5.921875 -5.90625 6.03125 -6.210938 6.03125 -6.609375 C 6.03125 -6.972656 5.921875 -7.265625 5.703125 -7.484375 C 5.484375 -7.703125 5.15625 -7.8125 4.71875 -7.8125 L 3.25 -7.8125 Z M 3.25 -5.375 "/></g></g></g><g fill="#1d683e" fill-opacity="1"><g transform="translate(172.317102, 103.506264)"><g><path d="M 3.25 -7.875 L 3.25 -5.890625 L 6.4375 -5.890625 L 6.4375 -4.0625 L 3.25 -4.0625 L 3.25 -1.90625 L 6.859375 -1.90625 L 6.859375 0 L 0.859375 0 L 0.859375 -9.78125 L 6.859375 -9.78125 L 6.859375 -7.875 Z M 3.25 -7.875 "/></g></g></g><g fill="#1d683e" fill-opacity="1"><g transform="translate(184.265109, 103.506264)"><g><path d="M 3.25 -7.875 L 3.25 -5.890625 L 6.4375 -5.890625 L 6.4375 -4.0625 L 3.25 -4.0625 L 3.25 -1.90625 L 6.859375 -1.90625 L 6.859375 0 L 0.859375 0 L 0.859375 -9.78125 L 6.859375 -9.78125 L 6.859375 -7.875 Z M 3.25 -7.875 "/></g></g></g><g fill="#1d683e" fill-opacity="1"><g transform="translate(196.213116, 103.506264)"><g><path d="M 9.609375 0 L 7.234375 0 L 3.25 -6.03125 L 3.25 0 L 0.859375 0 L 0.859375 -9.78125 L 3.25 -9.78125 L 7.234375 -3.71875 L 7.234375 -9.78125 L 9.609375 -9.78125 Z M 9.609375 0 "/></g></g></g></svg>